<?xml version="1.0" encoding="UTF-8"?>
<svg id="Layer_1" data-name="Layer 1" xmlns="http://www.w3.org/2000/svg"
    xmlns:xlink="http://www.w3.org/1999/xlink" viewBox="0 0 854.5344 92.8932">
    <defs>
        <linearGradient id="linear-gradient" x1="26.8978" y1="122.0261" x2="117.4972" y2="31.4266"
            gradientUnits="userSpaceOnUse">
            <stop offset="0" stop-color="#2597fb" />
            <stop offset="1" stop-color="#3aeee4" />
        </linearGradient>
        <linearGradient id="linear-gradient-2" x1="-14.4239" y1="80.7044" x2="76.1755" y2="-9.8951"
            xlink:href="#linear-gradient" />
        <linearGradient id="linear-gradient-3" x1="-1.1617" y1="93.9667" x2="89.4378" y2="3.3672"
            xlink:href="#linear-gradient" />
    </defs>
    <g id="logoMark">
        <a xlink:href="adient">
            <path id="logoMark_PathItem_" data-name="logoMark &amp;lt;PathItem&amp;gt;"
                d="M87.5318,92.8598V56.4826h-26.5582v11.4727h15.1106v13.4652h0v11.4727l11.4476-.0335Z"
                style="fill: url(#linear-gradient);" />
        </a>
        <a xlink:href="adient">
            <path id="logoMark_PathItem_-2" data-name="logoMark &amp;lt;PathItem&amp;gt;"
                d="M87.5318,45.0152V0L43.7729,30.9709,.014,0V14.0359L22.7497,30.1342l21.0204,14.8783,32.2973-22.8588v22.8699l11.4643-.0084Z"
                style="fill: url(#linear-gradient-2);" />
        </a>
        <a xlink:href="adient">
            <path id="logoMark_PathItem_-3" data-name="logoMark &amp;lt;PathItem&amp;gt;"
                d="M.014,92.8596H64.6842v-11.4727H11.4727V36.1812L0,28.0663,.014,92.8596Z"
                style="fill: url(#linear-gradient-3);" />
        </a>
    </g>
    <g id="type">
        <a xlink:href="1.4210854715202e-14">
            <path id="type_PathItem_" data-name="type &amp;lt;PathItem&amp;gt;"
                d="M191.4415,33.5061c-5.8622-10.5354-17.1712-16.8576-29.2164-16.3333-20.0159,0-33.8168,14.148-33.8168,33.8168,0,20.1305,14.148,34.0491,33.8168,34.0491,17.8304,0,28.2985-10.4683,32.093-23.8101h-36.9368v-7.5917h46.7026c-1.3824,21.5101-17.1392,39.223-41.8701,39.223-24.8457,0-43.0202-18.1886-43.0202-41.8701,0-24.0397,17.8304-41.8701,43.0202-41.8701,17.9423,0,31.6202,8.9711,38.417,24.3867l-9.1894-.0003Z"
                style="fill: #fff;" />
        </a>
        <a xlink:href="1.4210854715202e-14">
            <path id="type_PathItem_-2" data-name="type &amp;lt;PathItem&amp;gt;"
                d="M219.049,91.2506V7.281h8.9713V91.2506h-8.9713Z" style="fill: #fff;" />
        </a>
        <path id="type_CompoundPathItem_" data-name="type &amp;lt;CompoundPathItem&amp;gt;"
            d="M303.7153,34.659v56.5972h-8.6297v-11.386c-5.0903,8.1413-14.0967,12.9945-23.6955,12.7683-16.3901-.4212-29.3354-14.0493-28.9142-30.4394,.4061-15.7975,13.1167-28.5081,28.9142-28.9141,11.5035,0,20.4748,6.3268,23.5808,12.8718v-11.5007l8.7445,.0027Zm-30.8367,50.609c12.3239-.24,22.1198-10.4253,21.88-22.7492-.2336-11.9859-9.8943-21.6464-21.88-21.8799-13.1127,0-21.5101,10.2388-21.5101,22.3159s8.3975,22.3132,21.5101,22.3132Z"
            style="fill: #fff;" />
        <a xlink:href="1.4210854715202e-14">
            <path id="type_PathItem_-3" data-name="type &amp;lt;PathItem&amp;gt;"
                d="M325.6759,75.1467c1.2649,6.7857,6.324,10.8124,14.0332,10.8124,7.3621,0,12.8718-3.9176,12.8718-10.0065,0-4.9446-3.106-7.5917-8.627-9.2007l-9.2032-2.6444c-8.2799-2.3029-14.492-6.4359-14.492-15.2979,0-9.3182,7.936-15.5302,18.7481-15.5302,11.2743,0,17.598,6.5563,18.8656,15.8743h-7.8352c-.5264-5.5809-5.4575-9.6912-11.042-9.2034-6.3268,0-10.4681,3.3355-10.4681,8.627,0,5.1767,3.106,6.7886,8.627,8.3947l10.2358,2.9912c8.627,2.5185,13.4597,7.3594,13.4597,15.4127,0,10.5829-10.1211,17.254-21.2666,17.254s-20.2425-5.6356-21.8572-17.4834h7.95Z"
                style="fill: #fff;" />
        </a>
        <a xlink:href="1.4210854715202e-14">
            <path id="type_PathItem_-4" data-name="type &amp;lt;PathItem&amp;gt;"
                d="M378.0145,75.1467c1.2649,6.7857,6.3268,10.8124,14.0332,10.8124,7.3621,0,12.8718-3.9176,12.8718-10.0065,0-4.9446-3.106-7.5917-8.627-9.2007l-9.195-2.6387c-8.2799-2.3029-14.492-6.4359-14.492-15.2979,0-9.3182,7.936-15.5302,18.7481-15.5302,11.2712,0,17.601,6.5563,18.8656,15.8743h-7.8352c-.5264-5.582-5.4592-9.6927-11.0447-9.2034-6.3268,0-10.4681,3.3355-10.4681,8.627,0,5.1767,3.106,6.7886,8.627,8.3947l10.2389,2.9912c8.627,2.5185,13.4597,7.3594,13.4597,15.4127,0,10.5829-10.1241,17.254-21.2806,17.254s-20.2425-5.6356-21.8572-17.4834l7.9554-.0056Z"
                style="fill: #fff;" />
        </a>
        <a xlink:href="1.4210854715202e-14">
            <path id="type_PathItem_-5" data-name="type &amp;lt;PathItem&amp;gt;"
                d="M467.7341,92.3979l-31.5164-62.2301v61.0773h-8.1679V10.7313h7.1326l32.5521,65.5655L500.2865,10.7311h7.1326V91.2477h-8.1679V30.1707l-31.5171,62.2272Z"
                style="fill: #fff;" />
        </a>
        <path id="type_CompoundPathItem_-2" data-name="type &amp;lt;CompoundPathItem&amp;gt;"
            d="M584.2528,34.659v56.5972h-8.627v-11.386c-5.0903,8.1413-14.0967,12.9945-23.6955,12.7683-16.3901-.4212-29.3354-14.0493-28.9142-30.4394,.4061-15.7975,13.1167-28.5081,28.9142-28.9141,11.5007,0,20.4748,6.3268,23.5808,12.8718v-11.5007l8.7418,.0027Zm-30.8281,50.6117c12.3239-.24,22.1198-10.4253,21.88-22.7492-.2336-11.9859-9.8943-21.6464-21.88-21.8799-13.1127,0-21.5101,10.2388-21.5101,22.3159s8.3975,22.3104,21.5128,22.3104l-.0027,.0027Z"
            style="fill: #fff;" />
        <a xlink:href="1.4210854715202e-14">
            <path id="type_PathItem_-6" data-name="type &amp;lt;PathItem&amp;gt;"
                d="M634.0589,42.7095h-2.415c-12.4271,0-20.0157,8.3947-20.0157,21.7424v26.7988h-8.9713V34.6561h8.627v14.0303c2.759-10.2388,11.6182-14.4921,22.7777-14.4921l-.0027,8.5153Z"
                style="fill: #fff;" />
        </a>
        <a xlink:href="1.4210854715202e-14">
            <path id="type_PathItem_-7" data-name="type &amp;lt;PathItem&amp;gt;"
                d="M645.218,91.2506V7.281h8.9713V61.4578l27.3781-26.7988h11.1568l-28.1781,27.4898,29.5605,29.1018h-11.2712l-28.6427-28.0664v28.0664h-8.9747Z"
                style="fill: #fff;" />
        </a>
        <path id="type_CompoundPathItem_-3" data-name="type &amp;lt;CompoundPathItem&amp;gt;"
            d="M708.1392,66.6317c1.3796,11.733,9.2005,19.0951,21.051,19.0951,7.5718,.2816,14.7509-3.3735,18.9776-9.6623h8.5122c-5.1384,10.3646-15.8094,16.8209-27.3751,16.5628-18.6364,0-30.0223-13.342-30.0223-29.6782-.4482-15.9409,12.1111-29.227,28.0521-29.6753,.5035-.0142,1.0073-.015,1.5112-.0029,17.9423,0,29.1018,12.8718,29.1018,29.1018v4.259h-49.8085Zm-.1148-6.9005h41.5231c-.9178-11.2714-8.3947-19.7836-20.5895-19.7836-11.2739,0-19.7834,7.8238-20.9362,19.7863l.0027-.0027Z"
            style="fill: #fff;" />
        <a xlink:href="1.4210854715202e-14">
            <path id="type_PathItem_-8" data-name="type &amp;lt;PathItem&amp;gt;"
                d="M777.0376,16.7138h8.9713v17.9452h17.1392v7.4742h-17.1392v31.6201c0,7.821,2.5185,11.2714,9.6623,11.2714,2.3006-.0193,4.5868-.3679,6.7886-1.0353v7.2446c-2.8222,.926-5.7744,1.3928-8.7445,1.3824-13.2274,0-16.6774-8.0533-16.6774-21.7395v-28.7436h-11.6326v-7.4742h11.6182l.014-17.9452Z"
                style="fill: #fff;" />
        </a>
        <a xlink:href="1.4210854715202e-14">
            <path id="type_PathItem_-9" data-name="type &amp;lt;PathItem&amp;gt;"
                d="M819.3695,75.1467c1.2649,6.7857,6.3268,10.8124,14.0305,10.8124,7.3621,0,12.8718-3.9176,12.8718-10.0065,0-4.9446-3.106-7.5917-8.627-9.2007l-9.2032-2.6444c-8.2827-2.3029-14.495-6.4359-14.495-15.2979,0-9.3182,7.9387-15.5302,18.7481-15.5302,11.2743,0,17.601,6.5563,18.8656,15.8743h-7.8352c-.5277-5.5813-5.4598-9.6912-11.0447-9.2034-6.324,0-10.4654,3.3355-10.4654,8.627,0,5.1767,3.106,6.7886,8.627,8.3947l10.2358,2.9912c8.627,2.5185,13.4566,7.3594,13.4566,15.4127,0,10.5829-10.1211,17.254-21.2666,17.254s-20.2452-5.6356-21.8572-17.4834h7.9589Z"
                style="fill: #fff;" />
        </a>
    </g>
</svg>